<svg width="40" height="40" viewBox="0 0 40 40" fill="none" xmlns="http://www.w3.org/2000/svg">
  <path
    d="M32.3387 34.1665C29.3217 34.1665 26.2385 33.4259 23.0893 31.9448C19.9401 30.4637 17.0148 28.3724 14.3132 25.6708C11.6223 22.9692 9.53632 20.0465 8.0552 16.9027C6.57407 13.7588 5.8335 10.6783 5.8335 7.66125C5.8335 7.14986 6.00765 6.71735 6.35595 6.36371C6.70423 6.01007 7.13408 5.83325 7.6455 5.83325H12.6304C13.0585 5.83325 13.4258 5.97339 13.7325 6.25367C14.0391 6.53395 14.2476 6.89098 14.358 7.32475L15.3409 11.9465C15.4 12.3717 15.3854 12.7506 15.2971 13.0832C15.2088 13.4158 15.0464 13.6932 14.8099 13.9155L10.8986 17.7242C11.6009 18.9528 12.3603 20.0983 13.1769 21.1607C13.9935 22.223 14.8769 23.226 15.827 24.1698C16.8242 25.1854 17.8847 26.1174 19.0087 26.9657C20.1326 27.814 21.3388 28.5907 22.6273 29.2958L26.3955 25.4444C26.6675 25.1502 26.9786 24.9497 27.3287 24.8429C27.6787 24.736 28.0478 24.7104 28.436 24.766L32.6752 25.674C33.1147 25.778 33.4732 25.9996 33.7506 26.3386C34.028 26.6776 34.1667 27.064 34.1667 27.4978V32.3545C34.1667 32.8659 33.9899 33.2958 33.6363 33.644C33.2826 33.9924 32.8501 34.1665 32.3387 34.1665Z"
    fill="white" />
</svg>