<svg width="369" height="75" viewBox="0 0 369 75" fill="none" xmlns="http://www.w3.org/2000/svg">
  <rect x="115" y="61" width="139" height="5" rx="2.5" fill="black" />
  <path fill-rule="evenodd" clip-rule="evenodd"
    d="M42 48.3333C34.6362 48.3333 28.6667 42.3638 28.6667 35C28.6667 27.6362 34.6362 21.6666 42 21.6666C49.3638 21.6666 55.3334 27.6362 55.3334 35C55.3334 42.3638 49.3638 48.3333 42 48.3333ZM42 47C48.6274 47 54 41.6274 54 35C54 28.3725 48.6274 23 42 23C35.3726 23 30 28.3725 30 35C30 41.6274 35.3726 47 42 47ZM41.9842 44.3333C37.2323 44.3333 32.7224 39.7757 32.7224 36.4819C32.7224 34.5916 36.8296 36.8666 41.9842 36.8666C47.1389 36.8666 51.2915 34.5947 51.2777 36.4819C51.2544 39.6738 46.7362 44.3333 41.9842 44.3333ZM41.9842 40.1333C46.4025 40.1333 49.4589 38.4253 49.4589 37.1935C49.4589 35.9617 46.4025 37.9279 41.9842 37.9279C37.566 37.9279 34.5603 36.1977 34.5603 37.1935C34.5603 38.1893 37.566 40.1333 41.9842 40.1333ZM37.9834 32.6333C37.1089 32.6333 36.4 31.9244 36.4 31.0499C36.4 30.1755 37.1089 29.4666 37.9834 29.4666C38.8578 29.4666 39.5667 30.1755 39.5667 31.0499C39.5667 31.9244 38.8578 32.6333 37.9834 32.6333ZM45.9834 32.6333C45.1089 32.6333 44.4 31.9244 44.4 31.0499C44.4 30.1755 45.1089 29.4666 45.9834 29.4666C46.8578 29.4666 47.5667 30.1755 47.5667 31.0499C47.5667 31.9244 46.8578 32.6333 45.9834 32.6333Z"
    fill="#51555B" />
  <path
    d="M327.081 38.8212C329.894 38.8212 331.83 36.7016 331.83 33.6923V25.4623C331.83 22.4399 329.894 20.3334 327.081 20.3334C324.254 20.3334 322.318 22.4399 322.318 25.4623V33.6923C322.318 36.7016 324.254 38.8212 327.081 38.8212ZM327.081 36.8717C325.406 36.8717 324.294 35.6287 324.294 33.6923V25.4623C324.294 23.5259 325.406 22.2829 327.081 22.2829C328.755 22.2829 329.854 23.5259 329.854 25.4623V33.6923C329.854 35.6287 328.755 36.8717 327.081 36.8717ZM321.232 48.3334H332.916C333.466 48.3334 333.911 47.9016 333.911 47.3521C333.911 46.8025 333.466 46.3577 332.916 46.3577H328.062V43.3091C333.06 42.8904 336.436 39.3053 336.436 34.1633V31.5072C336.436 30.9577 336.004 30.5259 335.454 30.5259C334.905 30.5259 334.46 30.9577 334.46 31.5072V34.0848C334.46 38.5465 331.555 41.5035 327.081 41.5035C322.593 41.5035 319.688 38.5465 319.688 34.0848V31.5072C319.688 30.9577 319.256 30.5259 318.694 30.5259C318.144 30.5259 317.712 30.9577 317.712 31.5072V34.1633C317.712 39.3053 321.101 42.8904 326.086 43.3091V46.3577H321.232C320.682 46.3577 320.238 46.8025 320.238 47.3521C320.238 47.9016 320.682 48.3334 321.232 48.3334Z"
    fill="#51555B" />
</svg>